<svg xmlns="http://www.w3.org/2000/svg" xmlns:xlink="http://www.w3.org/1999/xlink" preserveAspectRatio="xMidYMid" width="944" height="609" viewBox="0 0 944 609">
  <defs>
    <style>
      .cls-1 {
        fill: red;
        fill-rule: evenodd;
      }
    </style>
  </defs>
  <path d="M91.000,608.000 L276.000,390.000 L277.000,388.000 L255.000,376.000 L82.000,290.000 L70.000,241.000 L288.000,376.000 L290.000,373.000 L100.000,250.000 L75.000,187.000 L299.000,361.000 L301.000,359.000 L-0.000,110.000 L41.000,65.000 L319.000,339.000 L321.000,337.000 L136.000,146.000 L186.000,142.000 L335.000,319.000 L339.000,313.000 L187.000,116.000 L227.000,109.000 L355.000,297.000 L359.000,291.000 L254.000,126.000 L289.000,112.000 L375.000,273.000 L380.000,267.000 L293.000,86.000 L325.000,68.000 L397.000,245.000 L404.000,238.000 L345.000,83.000 L377.000,62.000 L423.000,216.000 L428.000,208.000 L384.000,30.000 L417.000,-0.000 L452.000,183.000 L518.000,104.000 L944.000,609.000 L91.000,608.000 ZM123.000,594.000 L912.000,595.000 L518.000,128.000 L123.000,594.000 Z" class="cls-1"/>
</svg>
